<?xml version="1.0" encoding="utf-8"?>
<!-- Generator: Adobe Illustrator 16.0.0, SVG Export Plug-In . SVG Version: 6.00 Build 0)  -->
<!DOCTYPE svg PUBLIC "-//W3C//DTD SVG 1.1//EN" "http://www.w3.org/Graphics/SVG/1.1/DTD/svg11.dtd">
<svg version="1.1" id="Layer_1" xmlns="http://www.w3.org/2000/svg" xmlns:xlink="http://www.w3.org/1999/xlink" x="0px" y="0px"
	 width="72px" height="72px" viewBox="0 0 72 72" enable-background="new 0 0 72 72" xml:space="preserve">
<g id="_x23_f7931aff">
	<path fill="#F7931A" d="M33.6,0h5.03c8.511,0.81,16.79,4.42,22.81,10.55c6.19,6.08,9.84,14.46,10.561,23.08v5.03
		c-0.811,8.51-4.42,16.79-10.55,22.811c-5.91,6.02-14,9.59-22.341,10.529H33.19c-9.63-0.891-18.88-5.57-24.99-13.12
		C3.5,53.3,0.87,46.23,0,39.029V33.81C0.85,16.2,16.01,0.97,33.6,0"/>
</g>
<g id="_x23_ffffffff">
	<path fill="#FFFFFF" d="M32.257,18.366c0.604-2.33,1.187-4.669,1.791-7.01c1.413,0.356,2.826,0.723,4.238,1.089
		c-0.571,2.287-1.143,4.584-1.714,6.871c0.884,0.162,2.652,0.474,3.538,0.636c0.473-2.232,1.013-4.444,1.563-6.644
		c1.067,0.237,3.182,0.712,4.238,0.96c-0.527,2.33-1.1,4.659-1.67,6.978c2.911,1.305,6.266,2.534,7.861,5.522
		c2.006,3.969-0.097,9.351-4.432,10.667c6.708,3.226,4.723,13.643-1.597,15.995c-3.182,1.176-6.622,0.506-9.891,0.161
		c-0.593,2.318-1.176,4.648-1.769,6.968c-1.413-0.345-2.826-0.701-4.239-1.058c0.583-2.33,1.165-4.67,1.715-7.01
		c-1.132-0.259-2.265-0.529-3.407-0.799c-0.572,2.319-1.133,4.639-1.683,6.969c-1.445-0.391-2.891-0.757-4.325-1.155
		c0.637-2.318,1.22-4.658,1.791-7c-2.87-0.722-5.727-1.455-8.585-2.167c0.701-1.597,1.424-3.182,2.135-4.777
		c1.586,0.312,3.171,0.517,4.778,0.636c1.65-6.859,3.591-13.644,5.025-20.546c-0.248-2.438-3.311-2.168-5.047-2.956
		c0.377-1.488,0.744-2.966,1.122-4.454C26.551,16.964,29.399,17.665,32.257,18.366 M33.25,32.689
		c3.538,1.315,10.503,2.966,11.25-2.427c-0.249-4.454-5.738-5.015-9.071-5.975C34.759,27.102,34.058,29.918,33.25,32.689
		 M29.905,46.559c3.624,0.767,7.529,2.212,11.151,0.744c2.309-1.078,2.837-4.572,0.95-6.276c-2.621-2.514-6.407-2.999-9.761-3.915
		C31.458,40.261,30.671,43.399,29.905,46.559z"/>
</g>
</svg>
