<?xml version="1.0" encoding="utf-8"?>
<!-- Generator: Adobe Illustrator 16.0.0, SVG Export Plug-In . SVG Version: 6.00 Build 0)  -->
<!DOCTYPE svg PUBLIC "-//W3C//DTD SVG 1.1//EN" "http://www.w3.org/Graphics/SVG/1.1/DTD/svg11.dtd">
<svg version="1.1" id="Layer_2" xmlns="http://www.w3.org/2000/svg" xmlns:xlink="http://www.w3.org/1999/xlink" x="0px" y="0px"
	 width="72px" height="72px" viewBox="0 0 72 72" enable-background="new 0 0 72 72" xml:space="preserve">
<g>
	<path fill="#F08F0C" d="M0,13.846h20.561C8.326,22.371,5.317,39.199,13.842,51.434c1.825,2.621,4.1,4.895,6.72,6.721H0V13.846z
		 M72,13.846H51.438c12.236,8.525,15.244,25.354,6.721,37.588c-1.824,2.621-4.1,4.895-6.721,6.721H72V13.846z"/>
	<path fill="#F08F0C" d="M25.599,16.439c10.83-5.694,24.224-1.533,29.918,9.295c5.659,10.76,1.591,24.07-9.117,29.826
		c-10.83,5.695-24.225,1.535-29.918-9.295C10.822,35.506,14.891,22.196,25.599,16.439"/>
	<path fill="#FFFFFF" d="M43.14,28.631c-0.994-2.809-3.72-3.156-6.925-2.647l-0.997-3.994l-2.43,0.606l0.97,3.888
		c-0.64,0.158-1.29,0.336-1.936,0.51l-0.976-3.914l-2.429,0.605l0.994,3.992c-0.522,0.143-1.038,0.281-1.541,0.406l-0.003-0.012
		l-3.353,0.834l0.648,2.598c0,0,1.785-0.482,1.766-0.442c0.982-0.245,1.447,0.247,1.663,0.717l1.135,4.55
		c0.085-0.021,0.173-0.037,0.261-0.047l-0.257,0.064l1.589,6.373c0.034,0.32-0.024,0.859-0.713,1.033
		c0.038,0.018-1.767,0.438-1.767,0.438l0.24,3.023l3.164-0.789c0.588-0.145,1.17-0.279,1.739-0.418l1.009,4.037l2.427-0.604
		l-0.995-3.996c0.669-0.152,1.317-0.307,1.947-0.467l0.99,3.979l2.43-0.607l-1.003-4.029c4.027-1.254,6.631-2.996,6.029-6.922
		c-0.484-3.162-2.281-4.18-4.74-4.158C43.306,32.17,43.871,30.686,43.14,28.631L43.14,28.631z"/>
	<path fill="#F08F0C" d="M41.893,38.115c0.754,3.018-4.5,3.963-6.147,4.375l-1.333-5.352C36.06,36.729,41.107,34.967,41.893,38.115z
		"/>
	<path fill="#F08F0C" d="M38.88,30.847c0.683,2.747-3.706,3.501-5.078,3.843l-1.21-4.854C33.963,29.494,38.164,27.982,38.88,30.847z
		"/>
</g>
</svg>
