<?xml version="1.0" encoding="utf-8"?>
<!-- Generator: Adobe Illustrator 16.0.0, SVG Export Plug-In . SVG Version: 6.00 Build 0)  -->
<!DOCTYPE svg PUBLIC "-//W3C//DTD SVG 1.1//EN" "http://www.w3.org/Graphics/SVG/1.1/DTD/svg11.dtd">
<svg version="1.1" xmlns="http://www.w3.org/2000/svg" xmlns:xlink="http://www.w3.org/1999/xlink" x="0px" y="0px" width="2500px"
	 height="2500px" viewBox="0 0 2500 2500" enable-background="new 0 0 2500 2500" xml:space="preserve">
<g id="Layer_2">
	<ellipse fill="#FFFFFF" stroke="#000000" stroke-miterlimit="10" cx="1228.5" cy="1250" rx="890" ry="982"/>
</g>
<g id="Layer_1">
	<g>
		<path fill="#C2A633" d="M1280,823.75h-178.6v352.112h280.987v147.425H1101.4v352.088h187.35c48.138,0,395.2,5.438,394.662-409.65
			C1682.875,850.638,1346.8,823.75,1280,823.75z"/>
		<path fill="#C2A633" d="M1250,0C559.638,0,0,559.638,0,1250s559.638,1250,1250,1250s1250-559.638,1250-1250S1940.362,0,1250,0z
			 M1299.112,1925.125H846.425V1323.3H686.85v-147.425h159.563V574.013h388.525c91.912,0,700.7-19.088,700.7,686.85
			c0,717.612-636.513,664.263-636.513,664.263H1299.112z"/>
	</g>
</g>
</svg>
