<?xml version="1.0" encoding="utf-8"?>
<!-- Generator: Adobe Illustrator 16.0.0, SVG Export Plug-In . SVG Version: 6.00 Build 0)  -->
<!DOCTYPE svg PUBLIC "-//W3C//DTD SVG 1.1//EN" "http://www.w3.org/Graphics/SVG/1.1/DTD/svg11.dtd">
<svg version="1.1" id="Layer_1" xmlns="http://www.w3.org/2000/svg" xmlns:xlink="http://www.w3.org/1999/xlink" x="0px" y="0px"
	 width="650px" height="170px" viewBox="0 0 650 170" enable-background="new 0 0 650 170" xml:space="preserve">
<g>
	<path fill="#988430" d="M77.443,2.634c17.598-1.692,35.725,2.401,50.825,11.615c14.231,8.572,25.756,21.532,32.63,36.655
		c7.267,15.804,9.197,33.919,5.785,50.949c-3.401,17.082-12.438,32.96-25.313,44.688c-12.881,11.894-29.65,19.473-47.09,21.322
		c-11.251,1.051-22.748,0.204-33.55-3.224c-18.473-5.666-34.771-18.064-45.205-34.328C6.75,116.807,2.083,100.673,2.305,84.562
		C2.35,66.141,8.89,47.838,20.431,33.493C34.243,16.071,55.287,4.632,77.443,2.634L77.443,2.634z"/>
	<path fill="#7A6A2A" d="M83.671,4.842c14.759-0.255,29.61,3.509,42.337,11.03c13.727,8.062,25.018,20.272,31.848,34.664
		c7.374,15.009,9.548,32.392,6.682,48.827c-3.758,22.02-17.297,42.11-36.23,53.946c-13.108,8.402-28.758,12.757-44.313,12.416
		c-15.191-0.103-30.263-4.837-42.922-13.205c-12.96-8.548-23.458-20.862-29.571-35.156C4.45,101.275,2.952,82.843,7.244,65.812
		c4.189-17.246,14.459-32.846,28.396-43.792C49.201,11.24,66.368,5.194,83.671,4.842L83.671,4.842z"/>
	<path fill="#BA9F33" d="M53.101,13.402c13.863-6.284,29.582-8.276,44.604-5.903c15.685,2.44,30.536,9.832,41.992,20.817
		c14.016,13.283,22.855,31.875,24.183,51.148c1.749,21.976-6.307,44.518-21.691,60.317c-0.215-4.581-0.284-9.168-0.369-13.755
		c-0.034-3.4-0.79-6.728-1.079-10.1c0.063-1.181,0.198-2.355,0.238-3.531c0.165-3.185-1.521-6.153-1.09-9.36
		c0.42-4.508-1.942-8.595-3.111-12.818c-1.164-2.97-1.09-6.234-2.219-9.209c-0.813-11.489-5.263-23.087-13.982-30.893
		c0.284-0.397,0.84-1.203,1.124-1.606c0.346,0.75,0.737,1.47,1.129,2.19c2.027-2.293,2.339-5.45,2.94-8.322
		c1.13-5.121,0.347-10.411-0.527-15.503c-0.676-2.611-1.215-5.637-3.401-7.442c-2.333-1.374-6.375-1.396-7.732,1.328
		c-0.045,0.159-0.136,0.477-0.181,0.631c-1.017,1.765-2.424,3.292-4.19,4.32c-3.134,1.93-4.842,5.591-8.192,7.283
		c-2.089,0.682-4.212-0.477-6.341-0.238c-4.007,0.415-8.078,0.624-11.972,1.743c-3.684-0.584-7.386-1.17-11.047-1.908
		c0.011-0.267,0.04-0.795,0.057-1.062c-1.674-1.623-3.202-3.474-3.81-5.773c-1.118-4.28-3.758-8.402-7.737-10.502
		c-0.562-0.222-1.124-0.438-1.686-0.642c-0.352,0.386-0.693,0.778-1.027,1.169c-0.131,0.301-0.392,0.903-0.522,1.198
		c-0.885,1.981-0.687,4.19-0.749,6.302c-0.057,5.455-0.625,11.041-2.93,16.054c-3.712-0.012-7.42-0.039-11.126,0.005
		c-0.738,1.669-0.477,3.52-0.517,5.286c-5.966,5.523-8.351,13.664-9.463,21.47c-0.006,0.602,0.017,1.208,0.068,1.811
		c0.011,0.238,0.028,0.714,0.04,0.948c-2.623,3.457-3.083,7.976-3.758,12.125c0.959-0.058,1.918-0.113,2.883-0.154
		c-0.886,0.097-1.771,0.182-2.651,0.268c-0.17,0.948-0.307,1.896-0.415,2.85c0.863-0.317,1.72-0.647,2.583-0.965l0.466,0.022
		c-1.028,0.421-2.033,0.908-3.032,1.402c0.023,0.602,0.068,1.812,0.085,2.413c1.169-0.602,2.35-1.17,3.52-1.771l-0.426,0.477
		c-0.994,0.647-2.265,0.994-3.049,1.913c0.023,2.181,0.33,4.349,0.625,6.506c0.766,4.904,2.486,9.68,5.001,13.96
		c-0.074,3.128-0.749,6.277-2.594,8.861c0.517,0.977,1.379,1.879,1.431,3.025c-0.324,1.948-1.89,3.594-1.561,5.66
		c0.42,5.013-1.419,9.798-3.594,14.209c-11.28-11.723-18.733-27.062-20.987-43.178C5.171,81.435,7.414,65.76,13.902,52
		C21.782,34.992,35.974,21.021,53.101,13.402L53.101,13.402z"/>
	<path fill="#C79C3B" d="M57.983,15.781c0.334-0.392,0.675-0.783,1.027-1.169c0.562,0.205,1.124,0.42,1.686,0.642
		c0.948,2.98,2.418,5.96,2.118,9.173c-0.108,2.146-0.573,4.451,0.505,6.449c0.465,1.135,1.595,1.726,2.554,2.378
		c-0.579,0.448-1.152,0.897-1.76,1.3c-2.509,0.999-4.508,2.862-6.387,4.741c-0.726,0-1.453,0.005-2.18,0.005
		c3.974-4.774,5.728-11.064,5.711-17.207C61.338,19.545,59.386,17.683,57.983,15.781L57.983,15.781z"/>
	<path fill="#B58634" d="M60.697,15.254c3.979,2.1,6.619,6.222,7.737,10.502c0.608,2.299,2.135,4.15,3.81,5.773
		c-0.017,0.267-0.045,0.795-0.057,1.062c-2.078-0.681-4.632-1.112-6.313,0.665c-0.959-0.653-2.089-1.243-2.554-2.378
		c-1.079-1.999-0.613-4.303-0.505-6.449C63.115,21.214,61.645,18.234,60.697,15.254L60.697,15.254z"/>
	<path fill="#DFC068" d="M57.983,15.781c1.402,1.902,3.355,3.764,3.276,6.313c0.017,6.142-1.738,12.433-5.711,17.207
		c-0.272,0.006-0.812,0.017-1.084,0.017c1.721-2.633,3.429-5.49,3.611-8.719c0.324-4.559-1.079-9.049-0.613-13.619
		C57.592,16.684,57.853,16.082,57.983,15.781L57.983,15.781z"/>
	<path fill="#A78F33" d="M56.712,23.281c0.062-2.112-0.136-4.32,0.749-6.302c-0.465,4.57,0.937,9.061,0.613,13.619
		c-0.182,3.229-1.89,6.086-3.611,8.719l-0.681,0.017C56.087,34.322,56.655,28.736,56.712,23.281L56.712,23.281z"/>
	<path fill="#A17C34" d="M114.11,20.76c1.357-2.725,5.398-2.702,7.732-1.328c2.186,1.805,2.725,4.832,3.401,7.442
		c0.874,5.092,1.657,10.383,0.527,15.503c-0.602,2.872-0.913,6.029-2.94,8.322c-0.392-0.72-0.783-1.441-1.129-2.19
		c-0.386-1.124-0.71-2.271-1.073-3.406c1.396-3.117,2.106-6.523,2.475-9.907c0.336-3.02-1.674-5.506-3.678-7.494
		C118.362,24.898,116.211,22.809,114.11,20.76L114.11,20.76z"/>
	<path fill="#B89844" d="M113.929,21.391c0.045-0.154,0.136-0.472,0.181-0.631c2.101,2.049,4.252,4.139,5.314,6.943
		c-0.058,0.823-0.244,1.72-1.107,2.038c-2.458,1.244-5.211,2.146-7.01,4.354c-1.232,1.561-3.634,2.452-3.827,4.626
		c0.262,0.193,0.784,0.574,1.045,0.767c-0.244,0.318-0.727,0.954-0.971,1.272c0.312,0.324,0.63,0.642,0.948,0.959
		c1.312-1.369,3.327-1.488,5.024-2.089c-0.267,0.659-0.534,1.323-0.801,1.987c0.721-0.159,1.454-0.319,2.18-0.465
		c-0.897,1.027-1.902,1.958-2.958,2.827c-0.12-0.068-0.357-0.193-0.477-0.256c-1.294-0.641-2.554-1.504-4.042-1.561
		c-0.074-0.221-0.216-0.653-0.29-0.874c-0.818-0.045-1.629-0.199-2.402-0.46c0.216-0.539,0.647-1.612,0.863-2.146
		c-0.448,0.216-1.351,0.652-1.799,0.868c1.22-2.003,2.407-4.031,3.599-6.051c0.085-0.147,0.255-0.443,0.341-0.591
		c1.64-3.042,4.053-5.58,5.705-8.606C114.025,23.428,114.002,22.39,113.929,21.391L113.929,21.391z"/>
	<path fill="#CBA94C" d="M113.929,21.391c0.073,0.999,0.096,2.038-0.483,2.912c-1.652,3.026-4.065,5.563-5.705,8.606
		c-0.028-2.554,0.307-5.166,1.998-7.198C111.505,24.683,112.913,23.156,113.929,21.391L113.929,21.391z"/>
	<path fill="#AC8132" d="M101.547,32.993c3.35-1.691,5.058-5.353,8.192-7.283c-1.691,2.032-2.026,4.644-1.998,7.198
		c-0.085,0.148-0.256,0.443-0.341,0.591c0.068-0.982-0.028-1.958-0.17-2.929c-1.584,3.27-3.327,6.483-5.722,9.242
		c-1.385-0.375-2.822-0.511-4.258-0.511c0.795-1.522,1.816-2.907,2.896-4.23c-5.563-1.305-11.286-0.039-16.912-0.573
		c3.895-1.119,7.965-1.328,11.972-1.743C97.335,32.517,99.458,33.675,101.547,32.993L101.547,32.993z"/>
	<path fill="#927238" d="M119.424,27.703c2.004,1.987,4.014,4.474,3.678,7.494c-0.368,3.384-1.078,6.79-2.475,9.907
		c-1.027,0.839-2.095,1.634-3.15,2.446c-0.5-0.37-1.011-0.732-1.516-1.096l-0.25-0.171c1.624-3.491,4.246-6.772,4.417-10.74
		c-3.094,0.113-6.188,0.618-9.134,1.561c-1.215,0.301-1.833,1.418-2.469,2.384c-0.261-0.192-0.783-0.573-1.045-0.767
		c0.193-2.174,2.595-3.065,3.827-4.626c1.799-2.208,4.552-3.111,7.01-4.354C119.18,29.423,119.367,28.526,119.424,27.703
		L119.424,27.703z"/>
	<path fill="#8C6228" d="M107.23,30.57c0.142,0.971,0.238,1.947,0.17,2.929c-1.192,2.021-2.379,4.048-3.599,6.051
		c0.448-0.216,1.352-0.652,1.799-0.868c-0.215,0.533-0.647,1.607-0.863,2.146c-1.073-0.363-2.14-0.727-3.23-1.016
		C103.903,37.053,105.646,33.839,107.23,30.57L107.23,30.57z"/>
	<path fill="#D2A83E" d="M65.874,33.255c1.681-1.777,4.235-1.346,6.313-0.665c3.661,0.738,7.363,1.323,11.047,1.908
		c5.626,0.534,11.349-0.732,16.912,0.573c-1.079,1.323-2.101,2.708-2.896,4.23c-9.1-0.012-18.206,0.039-27.306,0.006
		c-0.38-1.295-0.431-2.906-1.624-3.769c-1.215-0.875-2.788-0.824-4.207-0.983C64.722,34.152,65.295,33.703,65.874,33.255
		L65.874,33.255z"/>
	<path fill="#DCBA5A" d="M57.728,39.295c1.879-1.879,3.877-3.742,6.387-4.741c1.419,0.159,2.992,0.108,4.207,0.983
		c1.192,0.863,1.244,2.474,1.624,3.769C65.874,39.295,61.798,39.301,57.728,39.295L57.728,39.295z"/>
	<path fill="#543E26" d="M110.994,37.104c2.946-0.943,6.041-1.448,9.134-1.561c-0.171,3.968-2.792,7.249-4.417,10.74
		c-1.204-0.851-2.464-1.612-3.764-2.304c1.056-0.869,2.061-1.8,2.958-2.827c-0.727,0.146-1.459,0.306-2.18,0.465
		c0.267-0.664,0.534-1.328,0.801-1.987c-1.698,0.602-3.712,0.721-5.024,2.089c-0.317-0.318-0.636-0.636-0.948-0.959
		c0.244-0.318,0.727-0.954,0.971-1.272C109.16,38.522,109.779,37.405,110.994,37.104L110.994,37.104z"/>
	<path fill="#F3EBDB" d="M42.656,39.34c3.707-0.044,7.414-0.017,11.126-0.005l0.681-0.017c0.273,0,0.812-0.011,1.084-0.017
		c0.727,0,1.454-0.005,2.18-0.005c4.07,0.005,8.146,0,12.217,0.011c9.1,0.033,18.206-0.018,27.306-0.006
		c1.436,0,2.873,0.136,4.258,0.511c1.09,0.29,2.157,0.653,3.23,1.016c0.772,0.261,1.584,0.415,2.402,0.46
		c0.074,0.221,0.216,0.653,0.29,0.874c1.487,0.057,2.747,0.92,4.042,1.561c-0.84,2.169-2.549,3.77-4.133,5.398
		c1.391,0.772,2.771,1.578,4.037,2.549c1.618-1.658,3.111-3.435,4.586-5.217c0.505,0.364,1.016,0.726,1.516,1.096
		c1.073,0.806,2.112,1.658,3.1,2.565c8.719,7.806,13.17,19.404,13.982,30.893c0.107,1.505,0.13,3.016,0.175,4.521
		c-0.034,5.978-0.573,11.994-2.14,17.779c-1.084,4.014-2.623,7.919-4.729,11.507c-1.477,2.276-3.061,4.502-4.968,6.443
		c-1.237,1.294-2.538,2.538-3.979,3.61c-0.647-0.335-1.289-0.664-1.936-0.994c-1.102,0.613-2.123,1.585-3.452,1.612
		c-1.783,0.119-3.434,0.897-5.188,1.204c1.703-2.543,5.183-4.451,4.621-7.971c-0.959,0.046-1.913,0.092-2.867,0.137
		c0.323-1.232,0.635-2.476,0.931-3.719c-0.318-0.21-0.942-0.63-1.254-0.84c1.073-1.197,2.168-2.39,3.179-3.65
		c-2.157,0.494-4.104,1.562-6.148,2.368c3.917-5.706,7.363-11.746,10.248-18.037c1.646-3.899,3.843-7.765,3.894-12.113
		c0.147-2.776-1.629-5.178-1.714-7.931c-0.245-3.168-0.239-6.835-2.867-9.088c-4.536,0.93-9.128,0.062-13.653-0.466
		c-1.215-0.175-2.436,0.034-3.633,0.233c-0.21-0.255-0.432-0.494-0.653-0.732c-1.408-1.414-2.895-2.89-4.82-3.554
		c-1.771-0.289-3.571-0.057-5.353-0.04l-0.244-0.063c-1.97-0.857-4.019-1.976-6.245-1.578c-1.85,0.193-2.952,1.874-4.428,2.799
		c-1.521,0.965-3.031,1.976-4.184,3.383c1.522,2.601,4.252,4.026,7.08,4.758c-0.096,1.697-0.227,3.389-0.375,5.081
		c-1.737,0.579-3.361,1.442-4.854,2.498c-0.795-1.72-1.169-3.6-1.937-5.325c-0.817-1.09-1.953-1.89-2.98-2.771
		c-0.238,0.732-0.471,1.47-0.709,2.208c-0.522,0.272-1.045,0.551-1.567,0.828c-0.074-1.283-0.108-2.571-0.341-3.837
		c-0.511-2.299-2.151-4.115-3.021-6.267c0.142-2.202,0.812-4.349,0.869-6.563c-1.101,0.443-2.22,0.846-3.298,1.334
		c-1.476,0.584-2.203,2.14-3.469,3.008c-1.231,0.545-2.572,0.75-3.866,1.09l0.165-0.471c1.152-1.011,1.482-2.499,1.771-3.929
		c-0.732,0.352-1.459,0.705-2.186,1.062c-0.915-1.283,0.477-2.146,1.271-2.986c-1.175-1.089-2.759-1.935-4.389-1.345
		c-2.73,0.954-3.934,3.985-4.212,6.654c-1.119,0.028-2.237,0.08-3.355,0.056c0.437-0.806,0.869-1.612,1.311-2.418
		c-0.55-1.221-1.788-1.68-2.963-2.083c0.063-3.043,0.012-6.08,0.006-9.117c0.011-0.891,0.034-1.777,0.034-2.667
		C42.179,42.86,41.917,41.009,42.656,39.34L42.656,39.34z"/>
	<path fill="#DCDAD7" d="M111.471,43.723c0.12,0.063,0.357,0.188,0.477,0.256c1.3,0.692,2.56,1.453,3.764,2.304l0.25,0.171
		c-1.476,1.782-2.969,3.559-4.586,5.217c-1.266-0.971-2.646-1.777-4.037-2.549C108.922,47.492,110.631,45.892,111.471,43.723
		L111.471,43.723z"/>
	<path fill="#A78E32" d="M32.676,66.096c1.112-7.806,3.497-15.947,9.463-21.47c0,0.891-0.023,1.777-0.034,2.667
		c-3.951,4.139-6.233,9.657-7.312,15.214c-0.42,1.891-1.266,3.645-2.049,5.399C32.693,67.304,32.67,66.698,32.676,66.096
		L32.676,66.096z"/>
	<path fill="#B59544" d="M117.477,47.549c1.056-0.812,2.123-1.607,3.15-2.446c0.363,1.135,0.687,2.282,1.073,3.406
		c-0.284,0.403-0.84,1.208-1.124,1.606C119.589,49.207,118.55,48.355,117.477,47.549L117.477,47.549z"/>
	<path fill="#EBCC73" d="M34.793,62.507c1.079-5.557,3.361-11.075,7.312-15.214c0.006,3.037,0.057,6.074-0.006,9.117
		c-1.874,1.595-2.708,4.218-5.12,5.177c-0.324,1.658-0.982,3.225-1.958,4.604c-0.71,0.92-1.482,1.783-2.237,2.663
		c-0.011-0.234-0.028-0.71-0.04-0.948C33.527,66.152,34.373,64.398,34.793,62.507L34.793,62.507z"/>
	<path fill="#D7D7D5" d="M51.318,54.202c1.63-0.59,3.213,0.256,4.389,1.345c-0.795,0.841-2.186,1.704-1.271,2.986
		c0.726-0.357,1.453-0.71,2.186-1.062c-0.29,1.43-0.619,2.918-1.771,3.929c-1.487-0.216-2.998-0.238-4.49-0.08
		c0.091-0.892,0.153-1.794,0.375-2.662c0.681-0.739,1.663-1.056,2.526-1.505c-0.522-0.528-0.942-1.209-1.624-1.538
		c-1.63,0.437-3.258,1.674-3.503,3.434c0.04,0.807,0.17,1.607,0.29,2.413c-0.267-0.011-0.806-0.035-1.073-0.04l-0.335-0.011
		l0.091-0.557C47.385,58.188,48.588,55.156,51.318,54.202L51.318,54.202z"/>
	<path fill="#E6DED7" d="M118.902,55.304c1.379-0.477,2.771-0.926,4.172-1.323c1.05,2.106,0.699,4.395-0.369,6.409
		c0.511,0,1.028,0.005,1.544,0.012c0.091,1.771,0.068,4.252-2.015,4.831c-1.153-2.538-3.906-4.014-4.61-6.801
		C117.709,57.285,118.408,56.309,118.902,55.304L118.902,55.304z"/>
	<path fill="#F5F2E6" d="M48.134,59.05c0.245-1.76,1.873-2.997,3.503-3.434c0.681,0.328,1.101,1.009,1.624,1.538
		c-0.863,0.449-1.845,0.766-2.526,1.505c-0.222,0.868-0.284,1.771-0.375,2.662c-0.482,0.034-1.453,0.102-1.936,0.142
		C48.304,60.657,48.173,59.857,48.134,59.05L48.134,59.05z"/>
	<path fill="#F8F3E4" d="M62.02,57.773c1.079-0.488,2.197-0.891,3.298-1.334c-0.057,2.214-0.727,4.36-0.869,6.563
		c0.869,2.152,2.51,3.968,3.021,6.267c0.233,1.267,0.267,2.555,0.341,3.837c0.522-0.277,1.044-0.556,1.567-0.828
		c0.238-0.738,0.471-1.476,0.709-2.208c1.028,0.88,2.164,1.68,2.98,2.771c0.767,1.725,1.141,3.605,1.937,5.325
		c1.493-1.056,3.116-1.918,4.854-2.498c0.147-1.692,0.278-3.384,0.375-5.081c0.006-0.182,0.012-0.545,0.017-0.727
		c-1.005-0.84-2.583-1.379-2.72-2.878c-0.125-1.908,1.079-3.565,2.424-4.786c0.375,0.08,0.755,0.17,1.141,0.227
		c0.732-0.057,1.09-0.488,1.067-1.305c0.982-0.041,1.964,0.005,2.947,0.062c-0.993,1.374-2.26,2.652-4.002,2.942
		c-0.006,0.919,0.017,1.838,0.068,2.759c-0.057,0.924-0.153,1.85-0.21,2.776l-0.017,0.635c0.011,2.186,0.011,4.376,0.028,6.563
		c0.011,10.928-0.04,21.85,0.023,32.779c0.051,0.21,0.159,0.636,0.215,0.846c4.922-0.329,10.525,1.215,14.794-1.993
		c5.984-4.297,8.442-11.813,9.061-18.869c0.698-8.328-0.789-17.241-5.989-24.002c1.197-0.199,2.418-0.408,3.633-0.233
		c4.525,0.528,9.117,1.396,13.653,0.466c2.628,2.253,2.623,5.92,2.867,9.088c0.084,2.753,1.861,5.154,1.714,7.931
		c-0.051,4.349-2.248,8.214-3.894,12.113c-2.884,6.291-6.33,12.331-10.248,18.037c2.044-0.807,3.991-1.874,6.148-2.368
		c-1.01,1.261-2.106,2.453-3.179,3.65c0.312,0.21,0.937,0.63,1.254,0.84c-0.295,1.243-0.607,2.486-0.931,3.719
		c0.954-0.045,1.907-0.091,2.867-0.137c0.562,3.52-2.918,5.428-4.621,7.971c1.754-0.307,3.406-1.085,5.188-1.204
		c1.329-0.027,2.35-0.999,3.452-1.612c0.647,0.33,1.289,0.659,1.936,0.994c-6.857,5.211-15.504,8.021-24.115,7.829
		c-7.494-0.023-14.987,0.033-22.48-0.029c-3.247,0.011-6.5,0.006-9.748,0.011c-2.384,0-4.774,0-7.158,0.012
		c-0.698-0.005-1.396-0.012-2.095-0.012c-3.185-0.011-6.375,0.114-9.554-0.022c-1.119,0.091-1.567-1.151-1.573-2.061
		c-0.142-2.525-0.011-5.052-0.051-7.578c0.028-2.884,0.045-5.773-0.029-8.657c-0.011-1.26,0.188-2.498,0.482-3.718
		c4.008-0.409,8.033,0.112,12.052-0.165c0-1.374,0.005-2.748,0.005-4.116c0-1.056,0-2.112,0.011-3.161
		c0.245,0.919,0.545,1.821,0.841,2.729c1.896-0.352,4.002-0.834,5.433,0.847c3.344-2.964,8.271-2.822,12.268-4.463
		c0.869-2.259,2.896-4.082,2.628-6.687c-0.159-0.035-0.488-0.108-0.647-0.147c-4.184-1.318-8.095,1.39-12.183,1.702
		c-2.719-0.255-5.342-1.572-7.09-3.678c0.147-0.602,0.312-1.204,0.471-1.801c-0.403-0.334-0.806-0.669-1.209-1.004
		c-0.045-1.215-0.062-2.43,0.006-3.639c0.369-1.431,1.323-2.55,2.634-3.207c0.42-2.146,0.767-4.304,1.141-6.456
		c-1.118-1.413-2.628-2.401-4.309-3.02v-0.165c-0.011-1.442-0.011-2.878,0-4.32c0.028-2.486,0-4.973-0.011-7.459
		c0.011-0.143,0.034-0.426,0.045-0.563c1.294-0.34,2.634-0.545,3.866-1.09C59.817,59.913,60.543,58.357,62.02,57.773L62.02,57.773z"
		/>
	<path fill="#F4EFC8" d="M36.979,61.588c2.413-0.959,3.247-3.582,5.12-5.177c0.023,1.431,0.051,2.862,0.091,4.292
		c0.392,0.051,1.17,0.159,1.562,0.209c1.118,0.023,2.236-0.028,3.355-0.056l-0.091,0.557c-1.527-0.029-3.054-0.035-4.581-0.063
		c-0.188,0.856-0.318,1.719-0.363,2.594c-2.98,1.159-4.769,3.894-7.204,5.796c0.022-1.187,0.051-2.368,0.153-3.548
		C35.997,64.813,36.655,63.246,36.979,61.588L36.979,61.588z"/>
	<path fill="#FCFCF4" d="M42.099,56.411c1.175,0.403,2.413,0.863,2.963,2.083c-0.442,0.806-0.874,1.612-1.311,2.418
		c-0.392-0.051-1.169-0.158-1.562-0.209C42.15,59.272,42.122,57.842,42.099,56.411L42.099,56.411z"/>
	<path fill="#D7D7D5" d="M77.335,62.445c1.476-0.925,2.578-2.605,4.428-2.799c2.226-0.397,4.275,0.721,6.245,1.578
		c-0.971-0.022-1.936-0.005-2.901-0.046c-0.982-0.056-1.964-0.102-2.947-0.062c-0.8,0.045-1.158,0.482-1.067,1.305
		c-0.386-0.057-0.766-0.147-1.141-0.227c-1.346,1.22-2.549,2.878-2.424,4.786c0.137,1.499,1.715,2.038,2.72,2.878
		c-0.005,0.182-0.011,0.545-0.017,0.727c-2.827-0.732-5.558-2.157-7.08-4.758C74.305,64.421,75.814,63.411,77.335,62.445
		L77.335,62.445z"/>
	<path fill="#E5C66B" d="M42.435,61.35c1.527,0.027,3.054,0.034,4.581,0.063l0.335,0.011c0.607,1.209,1.448,2.288,2.646,2.963
		c0.369,0.29,0.732,0.591,1.09,0.898c-1.192,1.828-2.941,3.275-3.798,5.319c-0.852,0.347-1.692,0.715-2.549,1.028
		c-0.182-0.119-0.545-0.352-0.727-0.472c0.176-0.301,0.517-0.897,0.688-1.198c-0.647-0.153-1.3-0.306-1.947-0.459
		c-0.341-1.839-0.585-3.69-0.681-5.558C42.116,63.069,42.247,62.207,42.435,61.35L42.435,61.35z"/>
	<path fill="#242110" d="M47.351,61.423c0.267,0.005,0.806,0.029,1.073,0.04c-0.136,2.293,2.486,2.026,4.02,1.788
		c-0.687-0.659-1.374-1.305-2.083-1.93c1.493-0.159,3.003-0.136,4.49,0.08l-0.165,0.471c-0.011,0.136-0.034,0.42-0.045,0.563
		c-1.697,0.346-2.833,2.128-4.644,1.952C48.798,63.711,47.958,62.633,47.351,61.423L47.351,61.423z"/>
	<path fill="#938357" d="M48.423,61.463c0.483-0.04,1.454-0.108,1.936-0.142c0.709,0.625,1.396,1.271,2.083,1.93
		C50.91,63.489,48.287,63.757,48.423,61.463L48.423,61.463z"/>
	<path fill="#CDBD83" d="M81.094,62.422c-0.091-0.823,0.267-1.26,1.067-1.305C82.184,61.935,81.826,62.366,81.094,62.422
		L81.094,62.422z"/>
	<path fill="#252211" d="M85.107,61.179c0.965,0.041,1.93,0.023,2.901,0.046l0.244,0.063c1.266,0.812,2.514,1.687,3.554,2.793
		c-1.198,2.566-3.327,4.729-5.961,5.813c-1.583,0.477-3.27,0.318-4.899,0.397l0.017-0.635c1.227-0.012,2.453-0.058,3.685-0.125
		c-1.351-0.613-2.651-1.379-3.474-2.65c-0.051-0.92-0.074-1.84-0.068-2.759C82.848,63.831,84.114,62.553,85.107,61.179
		L85.107,61.179z"/>
	<path fill="#D2B257" d="M88.252,61.287c1.782-0.017,3.582-0.25,5.353,0.04c1.925,0.664,3.412,2.14,4.82,3.554
		c-1.817,1.879-3.003,4.218-4.559,6.29c-1.539,2.118-4.309,2.481-6.477,3.673c-1.993,1.079-4.145,1.833-6.415,2.01
		c-0.017-2.186-0.017-4.376-0.028-6.563c1.629-0.08,3.315,0.08,4.899-0.397c2.634-1.084,4.763-3.247,5.961-5.813
		C90.767,62.974,89.519,62.099,88.252,61.287L88.252,61.287z"/>
	<path fill="#E6BD62" d="M49.996,64.386c1.811,0.176,2.946-1.606,4.644-1.952c0.011,2.486,0.04,4.973,0.011,7.459
		c-1.362,0.335-2.787,1.062-4.189,0.534c-1.056-0.42-2.157-0.301-3.173,0.176c0.857-2.043,2.606-3.491,3.798-5.319
		C50.728,64.977,50.365,64.676,49.996,64.386L49.996,64.386z"/>
	<path fill="#696148" d="M85.328,62.621C87.168,62.775,84.375,64.33,85.328,62.621L85.328,62.621z"/>
	<path fill="#F4ECB4" d="M34.867,69.74c2.436-1.902,4.224-4.638,7.204-5.796c0.096,1.868,0.34,3.719,0.681,5.558
		c0.647,0.153,1.3,0.306,1.947,0.459c-0.17,0.301-0.511,0.897-0.688,1.198c-1.924,1.459-4.422,2.544-5.37,4.933
		c-1.079,2.93-0.971,6.108-1.374,9.168c-0.698-0.692-1.742-1.267-1.68-2.396c-0.147-2.299,0.46-4.559,0.596-6.841
		c-1.062,1.544-1.703,3.316-2.339,5.064c-0.29,1.102-1.578,1.34-2.418,1.891c-0.863,0.317-1.72,0.647-2.583,0.965
		c0.108-0.953,0.245-1.901,0.415-2.85c0.88-0.086,1.765-0.171,2.651-0.268c-0.965,0.041-1.924,0.097-2.883,0.154
		c0.675-4.15,1.135-8.668,3.758-12.125c0.755-0.88,1.527-1.743,2.237-2.663C34.918,67.373,34.89,68.553,34.867,69.74L34.867,69.74z"
		/>
	<path fill="#71694F" d="M85.885,64.756C87.605,63.944,86.061,66.606,85.885,64.756L85.885,64.756z"/>
	<path fill="#DFCD88" d="M98.425,64.88c0.221,0.239,0.443,0.477,0.653,0.732c5.2,6.762,6.687,15.674,5.989,24.002
		c-0.892,0.482-1.8,0.941-2.64,1.516c-1.442,0.987-2.231,2.667-3.672,3.655c-2.527,1.261-5.706,0.96-7.954,2.815
		c-1.283,1.454-2.157,3.241-3.656,4.508c0.801,0.813,1.664,1.566,2.402,2.441c0.386,0.676,0.244,1.544,0.629,2.226
		c0.722,0.579,1.545,1.021,2.334,1.51c-2.044,0.307-4.116,0.232-6.166-0.04c-1.913-0.362-3.639,0.722-5.347,1.386
		c-0.063-10.929-0.012-21.851-0.023-32.779c2.271-0.176,4.422-0.931,6.415-2.01c2.168-1.191,4.938-1.555,6.477-3.673
		C95.422,69.098,96.608,66.759,98.425,64.88L98.425,64.88z"/>
	<path fill="#DFCD88" d="M81.173,66.879c0.823,1.271,2.123,2.037,3.474,2.65c-1.232,0.068-2.458,0.114-3.685,0.125
		C81.02,68.729,81.117,67.804,81.173,66.879L81.173,66.879z"/>
	<path fill="#DFC57C" d="M47.288,70.603c1.016-0.477,2.118-0.596,3.173-0.176c1.402,0.528,2.827-0.199,4.189-0.534
		c-0.011,1.442-0.011,2.878,0,4.32c-2.708-0.954-5.529-1.703-8.43-1.544c-0.494-0.352-0.987-0.698-1.481-1.038
		C45.596,71.318,46.437,70.95,47.288,70.603L47.288,70.603z"/>
	<path fill="#F3E19D" d="M38.642,76.092c0.948-2.389,3.446-3.474,5.37-4.933c0.182,0.12,0.545,0.353,0.727,0.472
		c0.494,0.34,0.988,0.687,1.481,1.038c-2.588,0.085-5.143,1.754-5.45,4.479c-0.449,3.462-1.646,6.783-1.97,10.258
		c-0.341,2.498,1.964,4.133,2.685,6.313c0.221,1.186,0.295,2.396,0.596,3.564c-0.347,1.516-0.647,3.043-0.886,4.576
		c-0.505,0.011-1.016,0.028-1.521,0.044c-0.534,1.238-1.175,2.441-1.578,3.735c0.46,2.493,1.277,4.917,1.851,7.393
		c-0.114,0.277-0.346,0.84-0.459,1.118c-1.238-1.346-1.942-3.225-3.577-4.156c-0.42-0.709-0.874-1.391-1.294-2.094
		c-2.515-4.28-4.235-9.056-5.001-13.96c0.232-1.447,0.51-2.89,0.749-4.332c1.044,2.072,0.931,4.599,2.328,6.489
		c0.948-0.25,1.901-0.482,2.867-0.653l0.477,0.568c1-1.447,1.941-3.003,2.123-4.797c-0.653,0.885-1.26,1.806-1.811,2.759
		c-0.794-1.249-1.737-2.441-2.197-3.86c-0.256-1.641-0.199-3.304-0.329-4.951c-0.597,0.114-1.187,0.228-1.783,0.358l0.426-0.477
		c0.528-0.591,1.033-1.198,1.544-1.8c-0.704-0.09-1.408-0.204-2.117-0.244l-0.466-0.022c0.84-0.551,2.129-0.789,2.418-1.891
		c0.636-1.748,1.277-3.52,2.339-5.064c-0.136,2.283-0.743,4.542-0.596,6.841c-0.062,1.129,0.982,1.703,1.68,2.396
		C37.671,82.2,37.563,79.022,38.642,76.092L38.642,76.092z"/>
	<path fill="#252211" d="M40.771,77.148c0.307-2.725,2.861-4.395,5.45-4.479c2.901-0.158,5.723,0.591,8.43,1.544v0.165
		c0.017,2.538-0.017,5.069,0.011,7.607l-0.006,0.472c-0.851,0.827-1.657,1.708-2.475,2.577c-1.385,1.181-3.162,1.651-4.887,2.094
		c-0.08,0.369-0.239,1.106-0.318,1.477c-0.091,0.408-0.267,1.231-0.357,1.64c-2.436-2.258-3.861-5.29-5.479-8.129
		C40.237,80.605,40.584,78.789,40.771,77.148L40.771,77.148z"/>
	<path fill="#DFDDD9" d="M54.651,74.378c1.681,0.619,3.19,1.607,4.309,3.02c-0.374,2.151-0.721,4.309-1.141,6.456
		c-1.311,0.657-2.265,1.776-2.634,3.207c0.091-1.715-0.188-3.406-0.522-5.075C54.634,79.447,54.667,76.916,54.651,74.378
		L54.651,74.378z"/>
	<path fill="#D6D6D5" d="M16.037,75.105c1.811-0.233,3.645-0.034,5.461-0.143l-0.8,1.016c2.815-0.209,5.683-0.005,8.401,0.784
		c-2.492-0.5-5.023-0.886-7.567-0.693c-0.942,0.107-1.783-0.33-2.555-0.806C18.063,75.19,16.616,76.184,16.037,75.105L16.037,75.105
		z"/>
	<path fill="#6E6342" d="M38.801,87.406c0.323-3.475,1.521-6.796,1.97-10.258c-0.187,1.641-0.534,3.457,0.369,4.967
		c1.618,2.839,3.042,5.871,5.479,8.129c0.09-0.408,0.266-1.231,0.357-1.64c0.892,0.039,1.783,0.091,2.68,0.146
		c1.249,1.011,2.595,1.92,3.673,3.129c1.164-2.214-0.477-4.383-0.256-6.659c-0.221-0.046-0.669-0.143-0.891-0.187
		c0.818-0.869,1.624-1.75,2.475-2.577c-0.011,3.865,0.006,7.736,0.006,11.603c-4.371-1.362-9.037-2.946-13.607-1.481
		c4.275,1.952,9.094,2.106,13.602,3.287c0,1.277-0.011,2.555-0.022,3.832c-2.083,0.937-3.98,2.23-6.006,3.28
		c-2.112-1.418-3.65-3.501-5.745-4.943c-0.199-0.188-0.602-0.563-0.8-0.75c-0.301-1.169-0.375-2.379-0.596-3.564
		C40.766,91.539,38.46,89.904,38.801,87.406L38.801,87.406z"/>
	<path fill="#BFA64C" d="M21.436,83.427c2.174-1.204,4.638-1.742,7.051-2.22c-0.255,0.545-0.681,0.875-1.266,1
		C25.335,82.774,23.434,83.433,21.436,83.427L21.436,83.427z"/>
	<path fill="#988430" d="M134.559,81.008c1.129,2.975,1.055,6.239,2.219,9.209c1.169,4.224,3.531,8.311,3.111,12.818
		c-0.579-0.942-1.118-1.947-1.073-3.089c0.011-2.435-1.289-4.559-1.885-6.857c-0.704-2.532-1.437-5.052-2.197-7.561
		C134.689,84.023,134.667,82.513,134.559,81.008L134.559,81.008z"/>
	<path fill="#E7E3DB" d="M54.662,81.985c0.335,1.669,0.613,3.36,0.522,5.075c-0.068,1.209-0.051,2.424-0.006,3.639
		c0.403,0.335,0.806,0.67,1.209,1.004c-0.159,0.597-0.324,1.199-0.471,1.801c-0.222,0.879-0.256,1.794-0.244,2.701
		c6.188,2.18,13.937,3.701,19.517-0.726c0.159,0.039,0.488,0.112,0.647,0.147c0.267,2.604-1.76,4.428-2.628,6.687
		c-3.997,1.641-8.924,1.499-12.268,4.463c-1.431-1.681-3.537-1.198-5.433-0.847c-0.295-0.908-0.596-1.811-0.841-2.729
		c-0.05-1.17-0.039-2.334-0.033-3.503c0.011-1.277,0.022-2.555,0.022-3.832c0.006-0.603,0.006-1.204,0.006-1.806
		c0-3.866-0.017-7.737-0.006-11.603L54.662,81.985L54.662,81.985z"/>
	<path fill="#F5EDB6" d="M31.893,83.001c0.709,0.04,1.413,0.154,2.117,0.244c-0.511,0.602-1.016,1.209-1.544,1.8
		c-1.169,0.602-2.35,1.17-3.52,1.771c-0.017-0.602-0.063-1.812-0.085-2.413C29.86,83.909,30.865,83.422,31.893,83.001L31.893,83.001
		z"/>
	<path fill="#F4ECB4" d="M32.04,85.521c0.596-0.131,1.186-0.244,1.783-0.358c0.13,1.647,0.073,3.311,0.329,4.951
		c0.46,1.419,1.402,2.611,2.197,3.86c-0.278,0.482-0.539,0.971-0.789,1.47c-0.965,0.171-1.919,0.403-2.867,0.653
		c-1.396-1.891-1.283-4.417-2.328-6.489c-0.239,1.442-0.517,2.885-0.749,4.332c-0.295-2.157-0.602-4.325-0.625-6.506
		C29.775,86.516,31.046,86.169,32.04,85.521L32.04,85.521z"/>
	<path fill="#39331F" d="M47.294,87.128c1.726-0.442,3.502-0.913,4.887-2.094c0.222,0.044,0.67,0.141,0.891,0.187
		c-0.221,2.276,1.42,4.445,0.256,6.659c-1.078-1.209-2.424-2.118-3.673-3.129c-0.897-0.056-1.788-0.107-2.68-0.146
		C47.055,88.234,47.214,87.497,47.294,87.128L47.294,87.128z"/>
	<path fill="#CCA847" d="M134.734,85.528c0.761,2.509,1.493,5.028,2.197,7.561c0.596,2.299,1.896,4.423,1.885,6.857
		c-0.045,1.142,0.494,2.146,1.073,3.089c-0.432,3.207,1.254,6.176,1.09,9.36c-0.04,1.176-0.176,2.351-0.238,3.531
		c-0.426-0.727-0.931-1.401-1.47-2.043c-0.619,1.913-0.21,4.274-1.771,5.768c-0.681-0.966-1.022-2.565-2.413-2.708
		c-2.015-0.324-3.895,0.664-5.246,2.089c-1.777,1.901-4.524,1.986-6.943,2.226c1.907-1.941,3.491-4.167,4.968-6.443
		c1.316,0.414,2.203-0.761,3.184-1.396c0.971-0.823,2.243-1.102,3.327-1.731c0.92-1.453,1.601-3.077,1.987-4.752
		c-0.312-1.102-0.829-2.129-1.079-3.247c-0.567,0.137-1.123,0.272-1.686,0.409c-0.25-0.199-0.755-0.591-1.005-0.789
		C134.162,97.522,134.701,91.506,134.734,85.528L134.734,85.528z"/>
	<path fill="#C1A956" d="M26.443,88.014c0.851-0.392,0.863,0.727,0.17,0.902c-0.602,0.307-1.323,0.938-2.032,0.637
		C24.552,88.673,25.79,88.338,26.443,88.014L26.443,88.014z"/>
	<path fill="#ECD592" d="M102.427,91.131c0.84-0.574,1.749-1.033,2.64-1.516c-0.619,7.056-3.077,14.572-9.061,18.869
		c-4.269,3.208-9.872,1.664-14.794,1.993c-0.057-0.21-0.164-0.636-0.215-0.846c1.708-0.664,3.434-1.748,5.347-1.386
		c2.049,0.272,4.122,0.347,6.166,0.04c-0.789-0.488-1.612-0.931-2.334-1.51c-0.386-0.682-0.244-1.55-0.629-2.226
		c-0.738-0.875-1.601-1.629-2.402-2.441c1.5-1.267,2.374-3.054,3.656-4.508c2.248-1.855,5.427-1.555,7.954-2.815
		C100.196,93.798,100.985,92.118,102.427,91.131L102.427,91.131z"/>
	<path fill="#D7C27C" d="M36.349,93.975c0.551-0.953,1.158-1.874,1.811-2.759c-0.182,1.794-1.124,3.35-2.123,4.797l-0.477-0.568
		C35.81,94.945,36.07,94.457,36.349,93.975L36.349,93.975z"/>
	<path fill="#242110" d="M41.055,92.578c4.57-1.465,9.236,0.119,13.607,1.481c0,0.602,0,1.203-0.006,1.806
		C50.149,94.685,45.33,94.53,41.055,92.578L41.055,92.578z"/>
	<path fill="#D6D6D5" d="M55.673,96.205c-0.012-0.907,0.022-1.822,0.244-2.701c1.749,2.105,4.371,3.423,7.09,3.678
		c4.087-0.313,7.999-3.021,12.183-1.702C69.609,99.906,61.86,98.385,55.673,96.205L55.673,96.205z"/>
	<path fill="#EED88B" d="M42.083,97.284c0.199,0.188,0.602,0.562,0.8,0.75c0.204,2.764,1.874,5.08,3.167,7.441
		c1.051,1.953,2.828,3.373,4.644,4.581c1.283,0.358,2.634,0.313,3.957,0.421c-4.019,0.277-8.044-0.244-12.052,0.165
		c-0.295,1.22-0.494,2.458-0.482,3.718c-0.721-0.442-1.441-0.886-2.168-1.328c-0.573-2.476-1.391-4.899-1.851-7.393
		c0.403-1.294,1.044-2.497,1.578-3.735c0.505-0.016,1.017-0.033,1.521-0.044C41.436,100.327,41.736,98.8,42.083,97.284
		L42.083,97.284z"/>
	<path fill="#DFC677" d="M42.883,98.034c2.095,1.442,3.633,3.525,5.745,4.943c0.59,0.528,1.135,1.102,1.703,1.652
		c1.243,0.988,2.833,1.306,4.325,1.731c0,1.368-0.005,2.742-0.005,4.116c-1.323-0.108-2.673-0.063-3.957-0.421
		c-1.816-1.208-3.593-2.628-4.644-4.581C44.756,103.114,43.087,100.798,42.883,98.034L42.883,98.034z"/>
	<path fill="#927D49" d="M48.628,102.978c2.026-1.05,3.923-2.344,6.006-3.28c-0.006,1.169-0.017,2.333,0.033,3.503
		c-1.509,0.238-3.27,0.107-4.336,1.43C49.763,104.079,49.218,103.506,48.628,102.978L48.628,102.978z"/>
	<path fill="#C4A859" d="M50.331,104.63c1.067-1.322,2.827-1.191,4.336-1.43c-0.011,1.049-0.011,2.105-0.011,3.161
		C53.164,105.936,51.574,105.618,50.331,104.63L50.331,104.63z"/>
	<path fill="#C0993A" d="M132.594,103.308c0.25,0.198,0.755,0.59,1.005,0.789c0.563-0.137,1.118-0.272,1.686-0.409
		c0.25,1.118,0.767,2.146,1.079,3.247c-0.386,1.675-1.067,3.299-1.987,4.752c-1.084,0.63-2.356,0.908-3.327,1.731
		c-0.981,0.636-1.868,1.811-3.184,1.396C129.972,111.227,131.51,107.321,132.594,103.308L132.594,103.308z"/>
	<path fill="#E5CB7A" d="M34.617,107.9c0.42,0.703,0.875,1.385,1.294,2.094c1.198,4.644,2.844,9.509,6.233,13.023
		c0.04,2.526-0.091,5.053,0.051,7.578c0.005,0.909,0.454,2.151,1.573,2.061c3.179,0.137,6.369,0.012,9.554,0.022
		c-1.238,1.636-0.335,3.577-0.301,5.399c0.035,2.146,1.164,4.048,1.493,6.131c-0.897,2.271-2.396,4.23-3.582,6.347
		c-1.187,0.176-2.43-0.295-3.571,0.034c-0.676,0.931-1.05,2.249-2.339,2.498c-6.086-3.78-11.813-8.192-16.724-13.432
		c2.174-4.411,4.014-9.196,3.594-14.209c-0.329-2.066,1.237-3.712,1.561-5.66c-0.051-1.146-0.914-2.049-1.431-3.025
		C33.868,114.178,34.543,111.028,34.617,107.9L34.617,107.9z"/>
	<path fill="#D2B159" d="M35.912,109.994c1.635,0.932,2.339,2.811,3.577,4.156c0.113-0.278,0.346-0.841,0.459-1.118
		c0.727,0.442,1.448,0.886,2.168,1.328c0.074,2.884,0.057,5.773,0.029,8.657C38.756,119.503,37.109,114.638,35.912,109.994
		L35.912,109.994z"/>
	<path fill="#BA9040" d="M139.271,113.884c0.539,0.642,1.044,1.316,1.47,2.043c0.289,3.372,1.044,6.699,1.079,10.1
		c0.085,4.587,0.153,9.174,0.369,13.755c-5.103,5.398-11.019,10.06-17.473,13.727c-2.447-1.754-5.263-0.397-7.493,0.999
		c0.414-0.817,1.032-1.482,1.726-2.066c1.369-1.142,1.901-2.98,3.333-4.064c1.476-1.328,3.452-2.084,4.615-3.74
		c1.174-2.539,3.741-3.918,5.285-6.183c1.441-2.072,3.814-3.98,3.593-6.75c-0.102-2.379,0.38-4.712,0.659-7.057
		c0.079-1.709,0.34-3.435,1.067-4.995C139.06,118.158,138.651,115.797,139.271,113.884L139.271,113.884z"/>
	<path fill="#D8C173" d="M129.841,119.032c1.351-1.425,3.23-2.413,5.246-2.089c1.391,0.143,1.731,1.742,2.413,2.708
		c-0.727,1.561-0.988,3.286-1.067,4.995c-0.279,2.345-0.761,4.678-0.659,7.057c0.221,2.77-2.152,4.678-3.593,6.75
		c-1.544,2.265-4.111,3.644-5.285,6.183c-0.824,0.005-1.646,0.016-2.47,0.027c2.072-3.168,3.372-6.738,5.018-10.121
		c0.381-0.557,0.216-1.17,0.023-1.749c-0.392-0.976,0.103-1.986,0.051-2.985c-0.171-1.029-0.602-1.987-0.942-2.964
		c-1.754-0.323-3.52-0.771-5.313-0.67c-2.231,0.403-3.775,2.271-5.785,3.156c-0.959,0.408-2.044,0.511-2.936,1.079
		c-1.782,1.516-2.208,4.16-4.274,5.421c-2.015,1.374-3.792,3.049-5.682,4.581c-1.113,1.039-2.737,0.267-4.076,0.489
		c-1.181,0.602-2.01,1.702-3.128,2.4c-1.448,0.488-3.163,0.284-4.366,1.362c-1.964,1.704-4.854,1.215-6.932,2.73
		c-2.35,1.198-3.406,3.849-5.654,5.172c-1.691,1.011-3.026,2.48-4.371,3.9c-0.363-0.448-0.727-0.892-1.084-1.335
		c-1.874,1.084-3.4,2.821-5.592,3.282c-0.784-0.932-1.544-2.066-2.895-2.124c0.221-0.453,0.437-0.908,0.641-1.367
		c-0.465-0.603-0.993-1.198-1.839-1.073c-2.055-0.25-4.121,0.187-6.176,0.034c-1.396-0.744-2.583-1.874-3.423-3.213
		c1.578-1.88,2.311-4.259,3.627-6.29c0.783-1.091,2.05-0.222,3.037,0.021c0.409-0.941,0.823-1.879,1.231-2.814
		c0.557,0.067,1.113,0.136,1.669,0.21c1.34-1.221,2.123-2.855,2.64-4.564c0.896-0.268,1.793-0.534,2.685-0.807
		c-0.011-1.486,0.67-2.764,1.743-3.758c7.493,0.063,14.986,0.006,22.48,0.029c8.611,0.192,17.258-2.618,24.115-7.829
		c1.441-1.072,2.742-2.316,3.979-3.61C125.316,121.019,128.064,120.934,129.841,119.032L129.841,119.032z"/>
	<path fill="#E0CD81" d="M117.477,129.33c2.01-0.886,3.553-2.753,5.785-3.156c1.794-0.102,3.56,0.347,5.313,0.67
		c0.341,0.977,0.771,1.935,0.942,2.964c0.051,0.999-0.443,2.01-0.051,2.985c0.193,0.579,0.358,1.192-0.023,1.749
		c-1.646,3.383-2.946,6.953-5.018,10.121c0.823-0.012,1.646-0.022,2.47-0.027c-1.164,1.656-3.14,2.412-4.615,3.74
		c-1.431,1.084-1.964,2.923-3.333,4.064c-0.693,0.584-1.312,1.249-1.726,2.066c-2.935,1.947-6.404,2.833-9.532,4.405
		c-0.023-0.579-0.045-1.158-0.063-1.731c-2.259,0.505-4.53,0.942-6.75,1.584c-1.908,0.521-3.077,2.266-4.764,3.173
		c-1.345,0.494-2.9,0.613-3.899,1.771c-10.315,0.852-20.789-0.182-30.69-3.219c1.107-0.352,2.214-0.727,3.305-1.146
		c0.147-1.209,0.811-2.208,1.657-3.055c1.351,0.058,2.111,1.192,2.895,2.124c2.191-0.461,3.718-2.198,5.592-3.282
		c0.357,0.443,0.721,0.887,1.084,1.335c1.345-1.42,2.68-2.89,4.371-3.9c2.248-1.323,3.304-3.974,5.654-5.172
		c2.078-1.516,4.967-1.026,6.932-2.73c1.203-1.078,2.918-0.874,4.366-1.362c1.118-0.698,1.947-1.799,3.128-2.4
		c1.339-0.223,2.963,0.55,4.076-0.489c1.89-1.532,3.667-3.207,5.682-4.581c2.066-1.261,2.492-3.905,4.274-5.421
		C115.433,129.841,116.518,129.738,117.477,129.33L117.477,129.33z"/>
	<path fill="#C2A44D" d="M53.323,132.679c0.698,0,1.396,0.007,2.095,0.012c1.618,1.902,3.707,4.014,6.375,4.014
		c2.106-0.21,1.062-2.707,0.783-4.025c3.248-0.005,6.5,0,9.748-0.011c-1.073,0.994-1.754,2.271-1.743,3.758
		c-0.892,0.272-1.788,0.539-2.685,0.807c-0.517,1.709-1.3,3.344-2.64,4.564c-0.557-0.074-1.113-0.143-1.669-0.21
		c-0.408,0.936-0.823,1.873-1.231,2.814c-0.987-0.243-2.254-1.112-3.037-0.021c-1.317,2.031-2.049,4.41-3.627,6.29
		c-0.284-0.574-0.562-1.147-0.829-1.726c-1.3,0.567-2.6,1.123-3.928,1.611c1.187-2.116,2.685-4.075,3.582-6.347
		c-0.329-2.083-1.458-3.984-1.493-6.131C52.987,136.256,52.085,134.314,53.323,132.679L53.323,132.679z"/>
	<path fill="#D2B159" d="M55.417,132.69c2.384-0.012,4.774-0.012,7.158-0.012c0.278,1.318,1.323,3.815-0.783,4.025
		C59.124,136.704,57.035,134.593,55.417,132.69L55.417,132.69z"/>
	<path fill="#CEB052" d="M50.933,150.556c1.329-0.488,2.628-1.044,3.928-1.611c0.267,0.578,0.545,1.151,0.829,1.726
		c0.84,1.339,2.026,2.469,3.423,3.213c2.055,0.152,4.122-0.284,6.176-0.034c0.846-0.125,1.374,0.471,1.839,1.073
		c-0.204,0.459-0.42,0.914-0.641,1.367c-0.846,0.847-1.51,1.846-1.657,3.055c-1.09,0.42-2.197,0.795-3.305,1.146
		c-5.739-1.901-11.263-4.388-16.502-7.402c1.289-0.249,1.663-1.567,2.339-2.498C48.503,150.261,49.746,150.731,50.933,150.556
		L50.933,150.556z"/>
	<path fill="#D2BA6B" d="M117.222,154.507c2.23-1.396,5.046-2.753,7.493-0.999c-9.883,5.751-21.079,9.395-32.5,10.201
		c0.999-1.158,2.554-1.277,3.899-1.771c1.687-0.907,2.855-2.651,4.764-3.173c2.22-0.642,4.491-1.079,6.75-1.584
		c0.017,0.573,0.04,1.152,0.063,1.731C110.818,157.34,114.287,156.454,117.222,154.507L117.222,154.507z"/>
</g>
<g>
	<path d="M194.721,131.549V48.837l24.062,0.215c5.263,0,9.729,1.03,13.4,3.088c3.67,2.059,6.507,4.763,8.513,8.11
		c2.005,3.349,3.438,7.108,4.297,11.279c0.859,4.172,1.289,8.639,1.289,13.4v3.599c0,6.159-0.564,12.38-1.692,18.664
		s-3.634,11.914-7.52,16.892c-3.886,4.977-9.605,7.465-17.16,7.465H194.721z M203.959,123.386h15.092
		c4.798,0,8.504-1.531,11.118-4.593c2.613-3.061,4.341-6.704,5.183-10.93c0.841-4.225,1.262-8.504,1.262-12.836v-4.727
		c-0.072-7.662-0.583-13.839-1.531-18.53c-0.949-4.69-2.792-8.289-5.532-10.796c-2.739-2.506-6.759-3.759-12.058-3.759h-13.535
		V123.386z"/>
	<path d="M257.401,88.958v-3.062c0-4.332,0.241-8.459,0.725-12.38c0.483-3.92,1.603-7.922,3.357-12.004
		c1.754-4.082,4.502-7.483,8.245-10.205c3.741-2.721,8.584-4.136,14.528-4.243c5.299,0,9.739,1.047,13.32,3.142
		c3.58,2.095,6.392,4.968,8.433,8.621c2.041,3.652,3.509,7.967,4.404,12.944c0.894,4.977,1.342,10.419,1.342,16.328
		c0,5.801-0.277,11.207-0.833,16.221c-0.556,5.013-1.701,9.703-3.437,14.071c-1.738,4.368-4.45,7.976-8.137,10.822
		c-3.688,2.847-8.505,4.287-14.448,4.323c-5.407,0-9.918-1.057-13.535-3.168c-3.617-2.113-6.437-5.147-8.459-9.104
		c-2.023-3.956-3.446-8.593-4.27-13.91C257.812,102.036,257.401,95.904,257.401,88.958z M266.639,87.562
		c0,7.483,0.295,13.776,0.886,18.879s2.166,9.551,4.726,13.347c2.56,3.795,6.561,5.693,12.004,5.693
		c4.476,0,7.984-1.19,10.527-3.572c2.542-2.381,4.314-5.335,5.317-8.861c1.002-3.527,1.611-7.618,1.826-12.272
		c0.179-4.655,0.304-8.146,0.376-10.474v-3.169c0-9.381-1.352-16.99-4.055-22.827c-2.704-5.836-7.528-8.754-14.474-8.754
		c-4.619,0-8.191,1.531-10.715,4.592c-2.524,3.062-4.225,6.947-5.102,11.655C267.077,76.506,266.639,81.761,266.639,87.562z"/>
	<path d="M321.747,88.958c0.072-5.156,0.322-9.775,0.752-13.857c0.43-4.082,1.495-8.298,3.195-12.648
		c1.7-4.35,4.477-7.966,8.325-10.849c3.849-2.882,8.996-4.324,15.441-4.324c3.831,0,7.251,0.671,10.259,2.014
		s5.522,3.196,7.546,5.559c2.022,2.363,3.553,5.102,4.592,8.217c1.038,3.115,1.558,6.481,1.558,10.097h-9.238
		c0-4.941-1.163-9.085-3.49-12.434c-2.329-3.347-6.069-5.075-11.226-5.183c-5.551,0-9.677,1.746-12.38,5.236
		c-2.704,3.491-4.359,7.546-4.968,12.165c-0.61,4.62-0.913,10.259-0.913,16.919v3.706c0,4.189,0.152,7.984,0.456,11.386
		c0.304,3.402,1.012,6.669,2.122,9.803c1.108,3.133,2.819,5.666,5.129,7.6s5.309,2.9,8.996,2.9c3.724-0.036,6.749-0.824,9.077-2.363
		c2.327-1.54,4.063-3.599,5.21-6.177c1.146-2.578,1.914-5.442,2.309-8.594c0.395-3.15,0.591-6.749,0.591-10.795h-18.529v-8.11
		h27.768v42.967h-7.036v-12.836c-1.754,4.869-4.181,8.45-7.277,10.742c-3.097,2.29-7.492,3.437-13.186,3.437
		c-5.873,0-10.67-1.603-14.394-4.807c-3.725-3.204-6.454-7.823-8.191-13.856c-1.737-6.034-2.604-13.204-2.604-21.511
		c0.035-0.716,0.072-1.379,0.107-1.987C321.747,90.767,321.747,89.961,321.747,88.958z"/>
	<path d="M388.831,131.549V48.837h41.249v8.379h-32.011v27.23H428.2v8.164h-30.131v30.561h32.226v8.378H388.831z"/>
	<path d="M439.32,92.61c0.072-6.051,0.33-11.503,0.779-16.354c0.447-4.852,1.494-9.488,3.142-13.911
		c1.646-4.421,4.243-8.038,7.788-10.849c3.545-2.81,8.289-4.216,14.232-4.216c4.261,0,8.146,0.842,11.655,2.524
		c3.509,1.684,6.372,4.503,8.593,8.459c2.221,3.957,3.349,9.14,3.384,15.548h-9.237c-0.181-2.398-0.412-4.439-0.698-6.123
		c-0.288-1.683-0.913-3.482-1.88-5.398c-0.967-1.915-2.479-3.518-4.539-4.807s-4.789-1.934-8.19-1.934
		c-4.512,0.144-7.931,2.086-10.258,5.827c-2.329,3.742-3.796,7.967-4.404,12.675c-0.609,4.709-0.913,9.802-0.913,15.281v3.169
		c0,4.547,0.206,8.728,0.617,12.541s1.163,7.224,2.256,10.231s2.757,5.425,4.995,7.251c2.237,1.826,5.11,2.739,8.62,2.739
		c5.765,0,9.515-2.247,11.252-6.741c1.737-4.493,2.784-10.088,3.143-16.783h9.022c0,7.519-1.047,13.669-3.142,18.448
		c-2.095,4.78-4.869,8.2-8.325,10.259c-3.456,2.058-7.296,3.088-11.521,3.088c-5.551-0.036-10.097-1.208-13.642-3.518
		s-6.23-5.38-8.057-9.211s-3.062-8.102-3.706-12.81C439.643,103.289,439.32,98.16,439.32,92.61z"/>
	<path d="M499.262,88.958v-3.062c0-4.332,0.241-8.459,0.725-12.38c0.483-3.92,1.603-7.922,3.357-12.004
		c1.753-4.082,4.502-7.483,8.244-10.205c3.74-2.721,8.584-4.136,14.528-4.243c5.298,0,9.739,1.047,13.319,3.142
		s6.392,4.968,8.433,8.621c2.041,3.652,3.509,7.967,4.404,12.944c0.894,4.977,1.343,10.419,1.343,16.328
		c0,5.801-0.277,11.207-0.833,16.221c-0.556,5.013-1.7,9.703-3.438,14.071s-4.449,7.976-8.137,10.822s-8.505,4.287-14.447,4.323
		c-5.407,0-9.919-1.057-13.535-3.168c-3.617-2.113-6.437-5.147-8.459-9.104c-2.022-3.956-3.446-8.593-4.27-13.91
		C499.673,102.036,499.262,95.904,499.262,88.958z M508.499,87.562c0,7.483,0.296,13.776,0.887,18.879s2.166,9.551,4.727,13.347
		c2.559,3.795,6.561,5.693,12.004,5.693c4.476,0,7.983-1.19,10.526-3.572c2.543-2.381,4.315-5.335,5.317-8.861
		c1.002-3.527,1.611-7.618,1.826-12.272c0.179-4.655,0.304-8.146,0.376-10.474v-3.169c0-9.381-1.352-16.99-4.055-22.827
		c-2.704-5.836-7.528-8.754-14.475-8.754c-4.619,0-8.19,1.531-10.715,4.592c-2.524,3.062-4.226,6.947-5.103,11.655
		C508.938,76.506,508.499,81.761,508.499,87.562z"/>
	<path d="M568.333,131.549V49.052h9.238v82.497H568.333z"/>
	<path d="M594.385,131.549V48.837h14.823l26.425,76.429l-0.215-76.429h9.238v82.712h-15.093l-24.652-70.95l-1.504-7.465v78.415
		H594.385z"/>
</g>
</svg>
