<?xml version="1.0" encoding="utf-8"?>
<!-- Generator: Adobe Illustrator 16.0.0, SVG Export Plug-In . SVG Version: 6.00 Build 0)  -->
<!DOCTYPE svg PUBLIC "-//W3C//DTD SVG 1.1//EN" "http://www.w3.org/Graphics/SVG/1.1/DTD/svg11.dtd">
<svg version="1.1" id="Layer_1" xmlns="http://www.w3.org/2000/svg" xmlns:xlink="http://www.w3.org/1999/xlink" x="0px" y="0px"
	 width="100px" height="80px" viewBox="0 0 100 80" enable-background="new 0 0 100 80" xml:space="preserve">
<path fill-rule="evenodd" clip-rule="evenodd" fill="none" stroke="#397AB9" stroke-width="4" stroke-miterlimit="10" d="
	M54.725,2.57h43.584v75.522H54.725V2.57z"/>
<path fill-rule="evenodd" clip-rule="evenodd" fill="none" stroke="#397AB9" stroke-width="4" stroke-miterlimit="10" d="
	M66.093,11.782h20.845v39.794H66.093V11.782z"/>
<path fill-rule="evenodd" clip-rule="evenodd" fill="none" stroke="#397AB9" stroke-width="3" stroke-miterlimit="10" d="
	M76.752,60.576c2.747,0,4.974,2.228,4.974,4.975s-2.227,4.974-4.974,4.974c-2.745,0-4.974-2.227-4.974-4.974
	S74.007,60.576,76.752,60.576z"/>
<polygon fill-rule="evenodd" clip-rule="evenodd" fill="#333333" points="48.039,4.202 48.039,0.412 4.455,0.412 0.665,0.412 
	0.665,4.202 0.665,55.365 0.665,57.261 0.665,59.155 34.774,59.155 34.774,76.21 12.034,76.21 12.034,80 48.039,80 48.039,76.21 
	38.564,76.21 38.564,59.155 48.039,59.155 48.039,55.365 38.564,55.365 34.774,55.365 4.455,55.365 4.455,4.202 "/>
</svg>
