<?xml version="1.0" encoding="utf-8"?>
<!-- Generator: Adobe Illustrator 16.0.0, SVG Export Plug-In . SVG Version: 6.00 Build 0)  -->
<!DOCTYPE svg PUBLIC "-//W3C//DTD SVG 1.1//EN" "http://www.w3.org/Graphics/SVG/1.1/DTD/svg11.dtd">
<svg version="1.1" id="Layer_1" xmlns="http://www.w3.org/2000/svg" xmlns:xlink="http://www.w3.org/1999/xlink" x="0px" y="0px"
	 width="100px" height="70px" viewBox="0 0 100 70" enable-background="new 0 0 100 70" xml:space="preserve">
<g>
	<path fill-rule="evenodd" clip-rule="evenodd" fill="none" stroke="#333333" stroke-width="3" stroke-miterlimit="10" d="
		M73.852,28.432c0-11.124-15.749-20.143-35.172-20.143c-19.425,0-35.172,9.019-35.172,20.143c0,9.519,11.535,17.49,27.033,19.594
		c-1.262,3.562-3.367,7.76-6.669,9.856c6.364,0.01,12.639-4.959,16.94-9.348C59.242,47.902,73.852,39.146,73.852,28.432z"/>
	<g>
		<path fill-rule="evenodd" clip-rule="evenodd" fill="#FFFFFF" d="M45.195,44.012c0-8.196,11.374-14.843,25.401-14.843
			C84.628,29.169,96,35.815,96,44.012c0,7.012-8.329,12.887-19.523,14.437c0.91,2.625,2.43,5.72,4.815,7.264
			c-4.595,0.007-9.128-3.653-12.233-6.89C55.746,58.357,45.195,51.905,45.195,44.012z"/>
		<path fill="none" stroke="#FFFFFF" stroke-width="6" stroke-miterlimit="10" d="M45.195,44.012
			c0-8.196,11.374-14.843,25.401-14.843C84.628,29.169,96,35.815,96,44.012c0,7.012-8.329,12.887-19.523,14.437
			c0.91,2.625,2.43,5.72,4.815,7.264c-4.595,0.007-9.128-3.653-12.233-6.89C55.746,58.357,45.195,51.905,45.195,44.012z"/>
		<path fill="none" stroke="#397AB9" stroke-width="3" stroke-miterlimit="10" d="M45.195,44.012
			c0-8.196,11.374-14.843,25.401-14.843C84.628,29.169,96,35.815,96,44.012c0,7.012-8.329,12.887-19.523,14.437
			c0.91,2.625,2.43,5.72,4.815,7.264c-4.595,0.007-9.128-3.653-12.233-6.89C55.746,58.357,45.195,51.905,45.195,44.012z"/>
	</g>
</g>
</svg>
