<?xml version="1.0" encoding="utf-8"?>
<!-- Generator: Adobe Illustrator 16.0.0, SVG Export Plug-In . SVG Version: 6.00 Build 0)  -->
<!DOCTYPE svg PUBLIC "-//W3C//DTD SVG 1.1//EN" "http://www.w3.org/Graphics/SVG/1.1/DTD/svg11.dtd">
<svg version="1.1" id="Layer_1" xmlns="http://www.w3.org/2000/svg" xmlns:xlink="http://www.w3.org/1999/xlink" x="0px" y="0px"
	 width="60px" height="50px" viewBox="0 0 60 50" enable-background="new 0 0 60 50" xml:space="preserve">
<g>
	<path fill="#333333" d="M51.53,41.477H18.253c-0.876,0-1.64-0.345-2.152-0.971c-0.51-0.627-0.695-1.447-0.517-2.301l4.51-21.915
		c0.344-1.664,2.003-3.017,3.702-3.017h33.276c0.877,0,1.641,0.345,2.153,0.972c0.509,0.625,0.695,1.445,0.517,2.303l-4.513,21.915
		C54.889,40.123,53.226,41.477,51.53,41.477z M23.796,14.554c-1.104,0-2.225,0.914-2.448,1.997l-4.511,21.913
		c-0.097,0.474-0.006,0.914,0.257,1.235c0.263,0.322,0.674,0.5,1.159,0.5H51.53c1.104,0,2.226-0.913,2.447-1.993l0,0l4.513-21.914
		c0.096-0.475,0.006-0.915-0.259-1.236c-0.262-0.325-0.673-0.501-1.159-0.501H23.796L23.796,14.554z"/>
	<path fill="#333333" d="M37.299,30.598c-0.962,0-1.924-0.366-2.595-1.073L22.062,16.199c-0.243-0.257-0.234-0.663,0.023-0.904
		c0.255-0.242,0.663-0.234,0.904,0.024l12.643,13.327c0.747,0.78,2.111,0.908,2.98,0.268l18.594-13.671
		c0.281-0.208,0.681-0.149,0.894,0.138c0.208,0.285,0.146,0.685-0.138,0.895L39.369,29.941
		C38.769,30.385,38.033,30.598,37.299,30.598z"/>
</g>
<path fill="#327DB9" d="M15.694,18.06H7.278c-0.353,0-0.64-0.285-0.64-0.639s0.287-0.639,0.64-0.639h8.416
	c0.354,0,0.64,0.286,0.64,0.639S16.048,18.06,15.694,18.06z"/>
<path fill="#327DB9" d="M13.989,26.589H0.882c-0.354,0-0.64-0.288-0.64-0.64s0.287-0.641,0.64-0.641h13.106
	c0.354,0,0.64,0.289,0.64,0.641S14.342,26.589,13.989,26.589z"/>
<path fill="#327DB9" d="M11.856,34.265H5.467c-0.354,0-0.64-0.287-0.64-0.639c0-0.354,0.286-0.643,0.64-0.643h6.389
	c0.354,0,0.64,0.289,0.64,0.643C12.496,33.978,12.21,34.265,11.856,34.265z"/>
</svg>
