<?xml version="1.0" encoding="utf-8"?>
<!-- Generator: Adobe Illustrator 16.0.0, SVG Export Plug-In . SVG Version: 6.00 Build 0)  -->
<!DOCTYPE svg PUBLIC "-//W3C//DTD SVG 1.1//EN" "http://www.w3.org/Graphics/SVG/1.1/DTD/svg11.dtd">
<svg version="1.1" id="Layer_1" xmlns="http://www.w3.org/2000/svg" xmlns:xlink="http://www.w3.org/1999/xlink" x="0px" y="0px"
	 width="50px" height="50px" viewBox="0 0 50 50" enable-background="new 0 0 50 50" xml:space="preserve">
<path fill="#333333" d="M47.541,12.679H32.188V1.396c0-0.557-0.446-1.003-1.003-1.003H3.545c-0.557,0-1.002,0.446-1.002,1.003
	v47.601C2.542,49.554,2.988,50,3.545,50h27.64h16.356c0.557,0,1.002-0.446,1.002-1.003V13.681
	C48.543,13.124,48.098,12.679,47.541,12.679z M30.182,13.681v34.324H4.548V2.399h25.634V13.681L30.182,13.681z M46.538,47.994
	H32.188v-33.32h14.351V47.994z"/>
<path fill="#327DB9" d="M36.097,19.768h6.532c0.557,0,1.003-0.445,1.003-1.003c0-0.557-0.446-1.002-1.003-1.002h-6.532
	c-0.558,0-1.003,0.445-1.003,1.002C35.094,19.313,35.539,19.768,36.097,19.768z"/>
<path fill="#327DB9" d="M36.097,24.802h6.532c0.557,0,1.003-0.445,1.003-1.003c0-0.557-0.446-1.002-1.003-1.002h-6.532
	c-0.558,0-1.003,0.446-1.003,1.002C35.094,24.356,35.539,24.802,36.097,24.802z"/>
<path fill="#327DB9" d="M36.097,29.825h6.532c0.557,0,1.003-0.446,1.003-1.003s-0.446-1.002-1.003-1.002h-6.532
	c-0.558,0-1.003,0.445-1.003,1.002S35.539,29.825,36.097,29.825z"/>
<path fill="#327DB9" d="M36.097,34.858h6.532c0.557,0,1.003-0.445,1.003-1.002c0-0.558-0.446-1.003-1.003-1.003h-6.532
	c-0.558,0-1.003,0.445-1.003,1.003C35.094,34.413,35.539,34.858,36.097,34.858z"/>
<path fill="#327DB9" d="M36.097,39.882h6.532c0.557,0,1.003-0.446,1.003-1.002c0-0.558-0.446-1.003-1.003-1.003h-6.532
	c-0.558,0-1.003,0.445-1.003,1.003C35.094,39.427,35.539,39.882,36.097,39.882z"/>
<path fill="#327DB9" d="M36.097,44.916h6.532c0.557,0,1.003-0.446,1.003-1.003s-0.446-1.002-1.003-1.002h-6.532
	c-0.558,0-1.003,0.445-1.003,1.002S35.539,44.916,36.097,44.916z"/>
<path fill="#327DB9" d="M9.196,10.218c0.557,0,1.003-0.446,1.003-1.003V6.997c0-0.558-0.446-1.002-1.003-1.002
	S8.194,6.439,8.194,6.997v2.218C8.194,9.772,8.639,10.218,9.196,10.218z"/>
<path fill="#327DB9" d="M14.646,10.218c0.557,0,1.002-0.446,1.002-1.003V6.997c0-0.558-0.446-1.002-1.002-1.002
	c-0.557,0-1.002,0.445-1.002,1.002v2.218C13.643,9.772,14.088,10.218,14.646,10.218z"/>
<path fill="#327DB9" d="M20.084,10.218c0.557,0,1.002-0.446,1.002-1.003V6.997c0-0.558-0.445-1.002-1.002-1.002
	c-0.558,0-1.003,0.445-1.003,1.002v2.218C19.082,9.772,19.537,10.218,20.084,10.218z"/>
<path fill="#327DB9" d="M25.532,10.218c0.559,0,1.004-0.446,1.004-1.003V6.997c0-0.558-0.445-1.002-1.004-1.002
	c-0.557,0-1.003,0.445-1.003,1.002v2.218C24.529,9.772,24.975,10.218,25.532,10.218z"/>
<path fill="#327DB9" d="M9.196,17.085c0.557,0,1.003-0.446,1.003-1.003v-2.229c0-0.557-0.446-1.003-1.003-1.003
	s-1.002,0.446-1.002,1.003v2.229C8.194,16.628,8.639,17.085,9.196,17.085z"/>
<path fill="#327DB9" d="M14.646,17.085c0.557,0,1.002-0.446,1.002-1.003v-2.229c0-0.557-0.446-1.003-1.002-1.003
	c-0.557,0-1.002,0.446-1.002,1.003v2.229C13.643,16.628,14.088,17.085,14.646,17.085z"/>
<path fill="#327DB9" d="M20.084,17.085c0.557,0,1.002-0.446,1.002-1.003v-2.229c0-0.557-0.445-1.003-1.002-1.003
	c-0.558,0-1.003,0.446-1.003,1.003v2.229C19.082,16.628,19.537,17.085,20.084,17.085z"/>
<path fill="#327DB9" d="M25.532,17.085c0.559,0,1.004-0.446,1.004-1.003v-2.229c0-0.557-0.445-1.003-1.004-1.003
	c-0.557,0-1.003,0.446-1.003,1.003v2.229C24.529,16.628,24.975,17.085,25.532,17.085z"/>
<path fill="#327DB9" d="M9.196,23.941c0.557,0,1.003-0.446,1.003-1.003V20.72c0-0.557-0.446-1.002-1.003-1.002
	s-1.002,0.445-1.002,1.002v2.218C8.194,23.495,8.639,23.941,9.196,23.941z"/>
<path fill="#327DB9" d="M14.646,23.941c0.557,0,1.002-0.446,1.002-1.003V20.72c0-0.557-0.446-1.002-1.002-1.002
	c-0.557,0-1.002,0.445-1.002,1.002v2.218C13.643,23.495,14.088,23.941,14.646,23.941z"/>
<path fill="#327DB9" d="M20.084,23.941c0.557,0,1.002-0.446,1.002-1.003V20.72c0-0.557-0.445-1.002-1.002-1.002
	c-0.558,0-1.003,0.445-1.003,1.002v2.218C19.082,23.495,19.537,23.941,20.084,23.941z"/>
<path fill="#327DB9" d="M25.532,23.941c0.559,0,1.004-0.446,1.004-1.003V20.72c0-0.557-0.445-1.002-1.004-1.002
	c-0.557,0-1.003,0.445-1.003,1.002v2.218C24.529,23.495,24.975,23.941,25.532,23.941z"/>
<path fill="#327DB9" d="M9.196,30.809c0.557,0,1.003-0.445,1.003-1.003v-2.219c0-0.558-0.446-1.003-1.003-1.003
	s-1.002,0.445-1.002,1.003v2.219C8.194,30.352,8.639,30.809,9.196,30.809z"/>
<path fill="#327DB9" d="M14.646,30.809c0.557,0,1.002-0.445,1.002-1.003v-2.219c0-0.558-0.446-1.003-1.002-1.003
	c-0.557,0-1.002,0.445-1.002,1.003v2.219C13.643,30.352,14.088,30.809,14.646,30.809z"/>
<path fill="#327DB9" d="M20.084,30.809c0.557,0,1.002-0.445,1.002-1.003v-2.219c0-0.558-0.445-1.003-1.002-1.003
	c-0.558,0-1.003,0.445-1.003,1.003v2.219C19.082,30.352,19.537,30.809,20.084,30.809z"/>
<path fill="#327DB9" d="M25.532,30.809c0.559,0,1.004-0.445,1.004-1.003v-2.219c0-0.558-0.445-1.003-1.004-1.003
	c-0.557,0-1.003,0.445-1.003,1.003v2.219C24.529,30.352,24.975,30.809,25.532,30.809z"/>
<path fill="#327DB9" d="M9.196,37.665c0.557,0,1.003-0.446,1.003-1.003v-2.219c0-0.557-0.446-1.002-1.003-1.002
	s-1.002,0.445-1.002,1.002v2.219C8.194,37.219,8.639,37.665,9.196,37.665z"/>
<path fill="#327DB9" d="M14.646,37.665c0.557,0,1.002-0.446,1.002-1.003v-2.219c0-0.557-0.446-1.002-1.002-1.002
	c-0.557,0-1.002,0.445-1.002,1.002v2.219C13.643,37.219,14.088,37.665,14.646,37.665z"/>
<path fill="#327DB9" d="M20.084,37.665c0.557,0,1.002-0.446,1.002-1.003v-2.219c0-0.558-0.445-1.002-1.002-1.002
	c-0.558,0-1.003,0.444-1.003,1.002v2.219C19.082,37.219,19.537,37.665,20.084,37.665z"/>
<path fill="#327DB9" d="M25.532,37.665c0.559,0,1.004-0.446,1.004-1.003v-2.219c0-0.558-0.445-1.002-1.004-1.002
	c-0.557,0-1.003,0.444-1.003,1.002v2.219C24.529,37.219,24.975,37.665,25.532,37.665z"/>
<path fill="#327DB9" d="M9.196,44.53c0.557,0,1.003-0.445,1.003-1.003V41.3c0-0.557-0.446-1.002-1.003-1.002
	S8.194,40.743,8.194,41.3v2.228C8.194,44.075,8.639,44.53,9.196,44.53z"/>
<path fill="#327DB9" d="M14.646,44.53c0.557,0,1.002-0.445,1.002-1.003V41.3c0-0.557-0.446-1.002-1.002-1.002
	c-0.557,0-1.002,0.445-1.002,1.002v2.228C13.643,44.075,14.088,44.53,14.646,44.53z"/>
<path fill="#327DB9" d="M20.084,44.53c0.557,0,1.002-0.445,1.002-1.003V41.3c0-0.557-0.445-1.002-1.002-1.002
	c-0.558,0-1.003,0.445-1.003,1.002v2.228C19.082,44.075,19.537,44.53,20.084,44.53z"/>
<path fill="#327DB9" d="M25.532,44.53c0.559,0,1.004-0.445,1.004-1.003V41.3c0-0.557-0.445-1.002-1.004-1.002
	c-0.557,0-1.003,0.445-1.003,1.002v2.228C24.529,44.075,24.975,44.53,25.532,44.53z"/>
</svg>
