<?xml version="1.0" encoding="utf-8"?>
<!-- Generator: Adobe Illustrator 16.0.0, SVG Export Plug-In . SVG Version: 6.00 Build 0)  -->
<!DOCTYPE svg PUBLIC "-//W3C//DTD SVG 1.1//EN" "http://www.w3.org/Graphics/SVG/1.1/DTD/svg11.dtd">
<svg version="1.1" id="Layer_1" xmlns="http://www.w3.org/2000/svg" xmlns:xlink="http://www.w3.org/1999/xlink" x="0px" y="0px"
	 width="40px" height="50px" viewBox="0 0 40 50" enable-background="new 0 0 40 50" xml:space="preserve">
<g>
	<g>
		<path fill="#333333" d="M38.543,36.781l-7.979-5.321c-1.012-0.671-2.369-0.449-3.117,0.507l-2.325,2.988
			c-0.298,0.394-0.84,0.508-1.272,0.268l-0.442-0.243c-1.466-0.799-3.29-1.795-6.965-5.471c-3.674-3.675-4.671-5.5-5.47-6.963
			l-0.241-0.442c-0.244-0.432-0.132-0.978,0.262-1.279l2.987-2.323c0.955-0.75,1.176-2.105,0.508-3.12L9.167,7.403
			C8.48,6.372,7.104,6.062,6.043,6.7L2.706,8.706c-1.048,0.617-1.817,1.614-2.146,2.786c-1.202,4.377-0.298,11.933,10.832,23.065
			c8.855,8.853,15.447,11.233,19.976,11.233c1.042,0.006,2.081-0.13,3.088-0.403c1.171-0.327,2.169-1.099,2.784-2.146l2.008-3.335
			C39.886,38.844,39.575,37.467,38.543,36.781z M38.113,39.231l-2,3.337c-0.443,0.757-1.161,1.314-2.005,1.553
			c-4.04,1.11-11.102,0.191-21.787-10.496C1.636,22.942,0.717,15.88,1.827,11.839c0.239-0.844,0.797-1.563,1.554-2.006l3.337-2.002
			c0.46-0.278,1.058-0.143,1.355,0.305l2.891,4.34l2.426,3.638c0.291,0.439,0.196,1.028-0.219,1.354l-2.987,2.324
			c-0.909,0.694-1.169,1.952-0.609,2.951l0.237,0.431c0.839,1.539,1.883,3.454,5.694,7.265c3.811,3.811,5.725,4.855,7.265,5.694
			l0.432,0.238c0.998,0.561,2.255,0.301,2.951-0.607l2.323-2.988c0.325-0.415,0.914-0.511,1.353-0.218l7.979,5.319
			C38.258,38.174,38.392,38.771,38.113,39.231z"/>
		<path fill="#327DB9" d="M22.495,12.942c6.163,0.007,11.161,5.004,11.168,11.169c0,0.363,0.294,0.657,0.656,0.657
			c0.361,0,0.656-0.294,0.656-0.657c-0.008-6.891-5.591-12.474-12.48-12.482c-0.364,0-0.658,0.294-0.658,0.657
			C21.837,12.649,22.131,12.942,22.495,12.942z"/>
		<path fill="#327DB9" d="M22.495,16.884c3.987,0.004,7.222,3.238,7.226,7.227c0,0.363,0.294,0.657,0.657,0.657
			c0.362,0,0.656-0.294,0.656-0.657c-0.005-4.714-3.825-8.536-8.539-8.541c-0.364,0-0.658,0.294-0.658,0.657
			C21.837,16.59,22.131,16.884,22.495,16.884z"/>
		<path fill="#327DB9" d="M22.495,20.826c1.812,0.002,3.281,1.472,3.284,3.285c0,0.363,0.295,0.657,0.656,0.657
			c0.362,0,0.656-0.294,0.656-0.657c-0.002-2.538-2.059-4.596-4.597-4.599c-0.364,0-0.658,0.294-0.658,0.657
			S22.131,20.826,22.495,20.826z"/>
	</g>
</g>
</svg>
