<?xml version="1.0" encoding="utf-8"?>
<!-- Generator: Adobe Illustrator 16.0.0, SVG Export Plug-In . SVG Version: 6.00 Build 0)  -->
<!DOCTYPE svg PUBLIC "-//W3C//DTD SVG 1.1//EN" "http://www.w3.org/Graphics/SVG/1.1/DTD/svg11.dtd">
<svg version="1.1" xmlns="http://www.w3.org/2000/svg" xmlns:xlink="http://www.w3.org/1999/xlink" x="0px" y="0px" width="1000px"
	 height="300px" viewBox="0 0 1000 300" enable-background="new 0 0 1000 300" xml:space="preserve">
<g id="Layer_1">
</g>
<g id="Layer_2">
	<g>
		<path fill="#B9B9BB" d="M276.045,149.998c0,72.363-58.66,131.025-131.021,131.025C72.661,281.023,14,222.361,14,149.998
			C14,77.636,72.661,18.975,145.024,18.975C217.385,18.975,276.045,77.636,276.045,149.998"/>
		<path fill="#B9B9BB" d="M248.228,149.999c0,56.995-46.205,103.206-103.203,103.206S41.816,206.994,41.816,149.999
			c0-57,46.21-103.206,103.208-103.206S248.228,92.999,248.228,149.999"/>
		<path fill="#FFFFFF" d="M137.366,185l8.51-32.045l20.147-7.361l5.013-18.834l-0.172-0.467l-19.832,7.246l14.289-53.809h-40.526
			l-18.688,70.221l-15.604,5.701l-5.156,19.416l15.592-5.695l-11.015,41.383h107.858L204.697,185H137.366"/>
		<g>
			<path fill="#626364" d="M320.828,74.829h19.98v161.214h-19.98V74.829z"/>
			<path fill="#626364" d="M396.663,95.264c0.228,6.813-4.768,12.262-12.715,12.262c-7.039,0-12.034-5.449-12.034-12.262
				c0-7.038,5.223-12.487,12.488-12.487C391.896,82.776,396.663,88.226,396.663,95.264z M374.411,236.043V126.146h19.981v109.897
				H374.411z"/>
			<path fill="#626364" d="M451.61,94.583v31.563h28.609v15.213H451.61v59.263c0,13.623,3.86,21.344,14.986,21.344
				c5.222,0,9.083-0.68,11.58-1.361l0.908,14.986c-3.86,1.588-9.99,2.725-17.711,2.725c-9.31,0-16.802-2.953-21.57-8.402
				c-5.677-5.904-7.721-15.668-7.721-28.609v-59.944h-17.029v-15.213h17.029v-26.34L451.61,94.583z"/>
			<path fill="#626364" d="M512.461,184.727c0.455,27.021,17.711,38.148,37.692,38.148c14.304,0,22.933-2.5,30.425-5.678
				l3.408,14.305c-7.041,3.18-19.074,6.813-36.558,6.813c-33.832,0-54.04-22.254-54.04-55.404c0-33.151,19.527-59.263,51.543-59.263
				c35.875,0,45.412,31.562,45.412,51.771c0,4.086-0.455,7.266-0.682,9.309H512.461z M571.043,170.424
				c0.227-12.717-5.223-32.472-27.701-32.472c-20.209,0-29.064,18.62-30.653,32.472H571.043z"/>
			<path fill="#626364" d="M693.426,231.955c-5.223,2.727-16.803,6.359-31.563,6.359c-33.15,0-54.721-22.48-54.721-56.086
				c0-33.832,23.16-58.354,59.035-58.354c11.809,0,22.252,2.952,27.701,5.677l-4.541,15.44c-4.768-2.726-12.26-5.223-23.16-5.223
				c-25.203,0-38.828,18.62-38.828,41.552c0,25.432,16.35,41.1,38.148,41.1c11.352,0,18.846-2.953,24.521-5.449L693.426,231.955z"/>
			<path fill="#626364" d="M814.902,180.186c0,40.645-28.154,58.355-54.721,58.355c-29.746,0-52.68-21.799-52.68-56.539
				c0-36.784,24.068-58.354,54.494-58.354C793.559,123.647,814.902,146.58,814.902,180.186z M727.711,181.32
				c0,24.068,13.852,42.234,33.379,42.234c19.072,0,33.377-17.939,33.377-42.688c0-18.619-9.309-42.234-32.924-42.234
				C737.93,138.633,727.711,160.432,727.711,181.32z"/>
			<path fill="#626364" d="M862.355,95.264c0.227,6.813-4.77,12.262-12.715,12.262c-7.039,0-12.035-5.449-12.035-12.262
				c0-7.038,5.223-12.487,12.488-12.487C857.586,82.776,862.355,88.226,862.355,95.264z M840.104,236.043V126.146h19.982v109.897
				H840.104z"/>
			<path fill="#626364" d="M893.234,155.891c0-11.354-0.227-20.664-0.908-29.745h17.711l1.135,18.164h0.455
				c5.447-10.444,18.164-20.662,36.328-20.662c15.213,0,38.828,9.082,38.828,46.776v65.619h-19.982v-63.35
				c0-17.711-6.584-32.471-25.43-32.471c-13.17,0-23.389,9.31-26.793,20.436c-0.908,2.498-1.363,5.904-1.363,9.309v66.076h-19.98
				V155.891z"/>
		</g>
	</g>
</g>
</svg>
